<svg width="34" height="32" viewBox="0 0 34 32" fill="none" xmlns="http://www.w3.org/2000/svg">
<path fill-rule="evenodd" clip-rule="evenodd" d="M31.1638 17.0729V17.0677C32.0201 16.1717 32.6935 15.1165 33.1456 13.961C33.6239 12.7386 33.844 11.4305 33.7922 10.1189C33.7404 8.80733 33.4178 7.52064 32.8446 6.33979C32.2714 5.15894 31.4601 4.10947 30.4616 3.25737C29.4632 2.40527 28.2992 1.76899 27.043 1.38854C25.7867 1.00809 24.4653 0.891702 23.1619 1.04669C21.8585 1.20169 20.6012 1.62471 19.4692 2.28915C18.5319 2.83929 17.6973 3.54507 17.0004 4.37467C16.3035 3.54507 15.4689 2.83929 14.5316 2.28915C13.3996 1.62471 12.1423 1.20169 10.8389 1.04669C9.53548 0.891702 8.21408 1.00809 6.95781 1.38854C5.70154 1.76899 4.53759 2.40527 3.53915 3.25737C2.54071 4.10947 1.72939 5.15894 1.15621 6.33979C0.583029 7.52065 0.260391 8.80733 0.208585 10.1189C0.15678 11.4305 0.376928 12.7386 0.855186 13.961C1.33344 15.1834 2.0595 16.2936 2.98762 17.2218L17.0004 31.2328L31.1638 17.0729ZM5.07582 15.4297L17.0004 27.3559L29.0755 15.2774C29.758 14.5947 30.2867 13.774 30.626 12.8704C30.9654 11.9667 31.1076 11.0009 31.0431 10.0377C30.9787 9.07459 30.709 8.13635 30.2523 7.28594C29.7956 6.43554 29.1623 5.69261 28.3949 5.10698C27.6276 4.52135 26.7439 4.10655 25.8031 3.8904C24.8623 3.67425 23.8862 3.66174 22.9401 3.85371C21.9941 4.04569 21.1001 4.43771 20.318 5.00348C19.5359 5.56926 18.8837 6.29572 18.4054 7.13414L18.2574 7.39356H15.7434L15.5954 7.13414C15.117 6.29572 14.4649 5.56926 13.6828 5.00348C12.9007 4.43771 12.0067 4.04569 11.0607 3.85371C10.1146 3.66174 9.13851 3.67425 8.19772 3.8904C7.25693 4.10655 6.37323 4.52135 5.60587 5.10698C4.83851 5.69261 4.20523 6.43554 3.7485 7.28594C3.29176 8.13635 3.02212 9.07459 2.95767 10.0377C2.89321 11.0009 3.03543 11.9667 3.37477 12.8704C3.71412 13.774 4.24276 14.5947 4.92524 15.2774L5.07582 15.4297Z" fill="#524336"/>
</svg>
