<svg width="40" height="40" viewBox="0 0 40 40" fill="none" xmlns="http://www.w3.org/2000/svg">
<path d="M0 0H40V40H0V0Z" fill="#050402"/>
<path d="M16.6733 24.0683L16.333 29.1665C16.833 29.1665 17.054 28.9378 17.333 28.6665L19.7353 26.3306L24.733 30.023C25.6528 30.5305 26.3166 30.2677 26.5457 29.1691L29.8265 13.7086C30.1624 12.3619 29.3132 11.7511 28.4333 12.1505L9.1683 19.579C7.85329 20.1065 7.86095 20.8401 8.9286 21.167L13.8724 22.7101L25.3179 15.4892C25.8583 15.1616 26.3542 15.3377 25.9471 15.699L16.673 24.0681L16.6733 24.0683Z" fill="#BB8C5F"/>
<path d="M0 0V-1.42857H-1.42857V0H0ZM40 0H41.4286V-1.42857H40V0ZM40 40V41.4286H41.4286V40H40ZM0 40H-1.42857V41.4286H0V40ZM0 1.42857H40V-1.42857H0V1.42857ZM38.5714 0V40H41.4286V0H38.5714ZM40 38.5714H0V41.4286H40V38.5714ZM1.42857 40V0H-1.42857V40H1.42857Z" fill="#BB8C5F"/>
</svg>
