<svg width="40" height="40" viewBox="0 0 40 40" fill="none" xmlns="http://www.w3.org/2000/svg">
<path d="M0 0H40V40H0V0Z" fill="#050402"/>
<path fill-rule="evenodd" clip-rule="evenodd" d="M32.4567 19.0441C32.454 25.5998 27.1211 30.934 20.5641 30.9366H20.5592C18.5688 30.936 16.613 30.4366 14.876 29.4891L8.57153 31.1429L10.2587 24.9803C9.21798 23.1766 8.67035 21.1308 8.67124 19.0348C8.67385 12.4776 14.0089 7.14288 20.564 7.14288C23.7454 7.14426 26.7314 8.38277 28.9767 10.6307C31.222 12.8786 32.4579 15.8665 32.4567 19.0441ZM11.4274 28.3175L15.1686 27.3361L15.5295 27.5504C17.0472 28.451 18.7868 28.9275 20.5606 28.9282H20.5646C26.0127 28.9282 30.4469 24.4939 30.4491 19.0435C30.4501 16.4022 29.423 13.9188 27.5567 12.0504C25.6905 10.182 23.2087 9.15252 20.5685 9.1516C15.1161 9.1516 10.6818 13.5855 10.6797 19.0355C10.6789 20.9032 11.2015 22.7222 12.191 24.2959L12.426 24.6699L11.4274 28.3175Z" fill="#BB8C5F"/>
<path d="M26.3203 22.615C26.246 22.491 26.0479 22.4167 25.7508 22.2679C25.4536 22.1192 23.9927 21.4004 23.7202 21.3011C23.4479 21.202 23.2497 21.1524 23.0517 21.4498C22.8536 21.7473 22.2841 22.4167 22.1108 22.615C21.9374 22.8133 21.7641 22.8382 21.467 22.6894C21.1699 22.5406 20.2124 22.2269 19.0773 21.2145C18.1939 20.4265 17.5976 19.4534 17.4242 19.1559C17.2509 18.8584 17.4057 18.6977 17.5545 18.5495C17.6882 18.4163 17.8517 18.2023 18.0003 18.0289C18.1488 17.8554 18.1983 17.7314 18.2974 17.5332C18.3964 17.3348 18.3469 17.1613 18.2726 17.0126C18.1983 16.8638 17.6041 15.4011 17.3564 14.8061C17.1152 14.2267 16.8702 14.3052 16.6879 14.296C16.5147 14.2874 16.3164 14.2855 16.1183 14.2855C15.9202 14.2855 15.5983 14.3599 15.3259 14.6574C15.0535 14.9549 14.2859 15.6738 14.2859 17.1364C14.2859 18.599 15.3507 20.0121 15.4993 20.2103C15.6478 20.4088 17.5946 23.4101 20.5755 24.6973C21.2845 25.0035 21.838 25.1863 22.2696 25.3232C22.9814 25.5495 23.6293 25.5175 24.1412 25.441C24.7122 25.3557 25.8993 24.7222 26.147 24.0281C26.3945 23.3339 26.3945 22.7389 26.3203 22.615Z" fill="#BB8C5F"/>
<path d="M0 0V-1.42857H-1.42857V0H0ZM40 0H41.4286V-1.42857H40V0ZM40 40V41.4286H41.4286V40H40ZM0 40H-1.42857V41.4286H0V40ZM0 1.42857H40V-1.42857H0V1.42857ZM38.5714 0V40H41.4286V0H38.5714ZM40 38.5714H0V41.4286H40V38.5714ZM1.42857 40V0H-1.42857V40H1.42857Z" fill="#BB8C5F"/>
</svg>
